<?xml version="1.0" encoding="UTF-8" standalone="no"?>
<svg
   xmlns:dc="http://purl.org/dc/elements/1.1/"
   xmlns:cc="http://creativecommons.org/ns#"
   xmlns:rdf="http://www.w3.org/1999/02/22-rdf-syntax-ns#"
   xmlns:svg="http://www.w3.org/2000/svg"
   xmlns="http://www.w3.org/2000/svg"
   id="svg8"
   version="1.1"
   viewBox="0 0 67.46875 9.9995756"
   height="9.9995756mm"
   width="67.46875mm">
  <defs
     id="defs2">
    <style
       type="text/css"
       id="style815"><![CDATA[
    .fil0 {fill:#2B2A29;fill-rule:nonzero}
    .fil1 {fill:url(#id0)}
   ]]></style>
    <linearGradient
       id="id0"
       gradientUnits="userSpaceOnUse"
       x1="133.2"
       y1="1039.47"
       x2="638.20001"
       y2="1433.62">
      <stop
         offset="0"
         style="stop-opacity:1; stop-color:#269FAE"
         id="stop817" />
      <stop
         offset="1"
         style="stop-opacity:1; stop-color:#BBD14A"
         id="stop819" />
    </linearGradient>
  </defs>
  <metadata
     id="metadata5">
    <rdf:RDF>
      <cc:Work
         rdf:about="">
        <dc:format>image/svg+xml</dc:format>
        <dc:type
           rdf:resource="http://purl.org/dc/dcmitype/StillImage" />
        <dc:title></dc:title>
      </cc:Work>
    </rdf:RDF>
  </metadata>
  <g
     transform="translate(444.87798,-151.61333)"
     id="layer1">
    <g
       transform="matrix(0.17,0,0,0.17,-299.68746,144.03118)"
       id="layer1-6">
      <g
         transform="matrix(0.12562248,0,0,0.12562248,-874.81254,-81.32689)"
         id="g844"
         style="clip-rule:evenodd;fill-rule:evenodd;image-rendering:optimizeQuality;shape-rendering:geometricPrecision;text-rendering:geometricPrecision">
        <g
           id="Слой_x0020_1">
          <metadata
             id="CorelCorpID_0Corel-Layer" />
          <path
             style="fill:#2b2a29;fill-rule:nonzero"
             class="fil0"
             d="m 2618.19,1274.28 v 0.32 c 0,4.36 -1.5,8 -4.56,11.05 -3.06,3.06 -6.7,4.56 -11.05,4.56 h -95.27 v 97.54 h 18.19 0.2 0.2 58.92 41.54 c 4.36,0 8.07,1.43 11.26,4.35 3.12,2.93 4.68,6.58 4.68,10.93 v 0.33 c 0,4.36 -1.5,8 -4.56,11.05 -3.06,3.06 -6.7,4.55 -11.05,4.55 h -41.87 -58.92 -0.2 -0.2 -36.49 -0.23 c -5.01,0 -9.23,-1.81 -12.81,-5.39 -3.57,-3.58 -5.4,-7.81 -5.4,-12.81 V 1155.6 c 0,-5.01 1.83,-9.29 5.4,-12.88 3.58,-3.57 7.8,-5.33 12.81,-5.33 h 0.23 35.63 0.2 0.2 59.78 40.69 c 4.35,0 8.06,1.43 11.25,4.35 3.12,2.94 4.68,6.58 4.68,10.94 v 0.32 c 0,4.36 -1.49,8 -4.55,11.05 -3.06,3.06 -6.7,4.55 -11.05,4.55 h -41.02 v 0.01 h -77.51 V 1259 h 94.94 c 4.36,0 8.07,1.43 11.25,4.35 3.13,2.93 4.69,6.57 4.69,10.93 z m 377.74,95.71 c -0.68,-1.68 -1.7,-3.21 -3.06,-4.57 l -0.09,-0.09 c -1.4,-1.5 -2.91,-2.65 -4.52,-3.45 -1.59,-0.8 -3.31,-1.26 -5.12,-1.38 h -0.02 c -1.85,-0.13 -3.58,0.07 -5.21,0.6 -1.65,0.53 -3.21,1.41 -4.69,2.63 l -0.02,0.03 c -10.57,8.5 -21.96,14.9 -34.16,19.17 -12.21,4.27 -25.21,6.41 -38.99,6.41 -15.65,0 -29.44,-2.83 -41.79,-8.01 -12.34,-5.19 -23.24,-12.72 -33.14,-22.17 -1.16,-1.1 -2.28,-2.23 -3.36,-3.37 -18.92,-20.08 -28.48,-48.74 -28.54,-77.36 -0.05,-28.62 9.42,-57.28 28.55,-77.35 1.09,-1.14 2.21,-2.26 3.36,-3.34 9.93,-9.37 20.82,-16.9 33.16,-22.1 12.37,-5.21 26.12,-8.06 41.76,-8.06 13.78,0 26.78,2.14 38.99,6.41 12.2,4.27 23.59,10.67 34.16,19.18 l 0.02,0.03 c 1.48,1.21 3.04,2.09 4.69,2.63 1.63,0.52 3.36,0.73 5.21,0.6 v 0 c 1.83,-0.13 3.55,-0.59 5.15,-1.39 1.6,-0.8 3.12,-1.95 4.51,-3.45 l 0.09,-0.09 c 1.36,-1.35 2.38,-2.88 3.06,-4.58 v 0 c 0.68,-1.7 1.02,-3.62 1.02,-5.75 0,-2.26 -0.45,-4.36 -1.35,-6.29 -0.92,-1.97 -2.32,-3.8 -4.19,-5.49 -13.12,-10.64 -27.32,-18.61 -42.6,-23.93 -15.33,-5.32 -31.79,-7.98 -49.39,-7.98 -19.74,0 -37.83,3.36 -54.23,10.1 -16.4,6.73 -31.19,16.84 -44.35,30.35 l -0.01,0.01 c -26.45,27.01 -39.68,63.77 -39.68,100.54 0,36.76 13.22,73.49 39.68,100.5 l 0.01,0.01 c 13.16,13.5 27.95,23.62 44.35,30.35 16.4,6.74 34.49,10.1 54.23,10.1 17.6,0 34.06,-2.66 49.39,-7.99 15.28,-5.31 29.48,-13.28 42.6,-23.93 1.87,-1.68 3.27,-3.51 4.19,-5.48 0.9,-1.93 1.35,-4.03 1.35,-6.3 0,-2.12 -0.34,-4.03 -1.02,-5.74 z M 791.57,1281.11 V 1325 h -0.33 v 79.33 c 0,4.35 -1.56,8.07 -4.68,11.18 -3.18,3.19 -6.89,4.75 -11.25,4.75 -4.36,0 -8.13,-1.56 -11.38,-4.75 -3.26,-3.11 -4.88,-6.83 -4.88,-11.18 v -252.31 c 0,-4.35 1.62,-8.05 4.88,-11.24 3.25,-3.13 7.02,-4.69 11.38,-4.69 4.36,0 8.07,1.56 11.25,4.69 3.12,3.19 4.68,6.89 4.68,11.24 v 129.41 z m 2389.25,-18.38 h 81.51 0.19 0.21 10.1 4.06 c 4.26,0 7.97,-1.56 11.13,-4.6 3.18,-3.02 4.73,-6.74 4.73,-11.26 v -93.77 c 0,-4.52 1.54,-8.3 4.72,-11.33 3.18,-3.04 6.88,-4.52 11.12,-4.52 4.26,0 7.97,1.48 11.13,4.52 3.18,3.03 4.73,6.81 4.73,11.33 v 250.95 c 0,4.52 -1.55,8.23 -4.73,11.27 -3.16,3.03 -6.87,4.58 -11.13,4.58 -4.24,0 -7.94,-1.55 -11.12,-4.58 -3.18,-3.04 -4.72,-6.75 -4.72,-11.27 v -93.77 c 0,-4.53 -1.55,-8.31 -4.73,-11.33 -3.16,-3.04 -6.87,-4.52 -11.13,-4.52 h -4.06 -10.1 -0.21 -0.19 -81.51 -0.18 -0.22 -6.9 -6.93 c -4.52,0 -8.21,1.48 -11.26,4.52 -3.03,3.02 -4.58,6.8 -4.58,11.33 v 93.77 c 0,4.52 -1.5,8.23 -4.52,11.27 -3.04,3.03 -6.82,4.58 -11.35,4.58 h -0.33 c -4.26,0 -7.96,-1.55 -11.12,-4.58 -3.18,-3.04 -4.73,-6.75 -4.73,-11.27 V 1153.1 c 0,-4.52 1.55,-8.3 4.73,-11.33 3.16,-3.04 6.86,-4.52 11.12,-4.52 h 0.33 c 4.53,0 8.31,1.48 11.35,4.52 3.02,3.03 4.52,6.81 4.52,11.33 v 93.77 c 0,4.52 1.55,8.24 4.58,11.26 3.05,3.04 6.74,4.6 11.26,4.6 h 6.93 6.9 0.22 z m -2083.31,-96.34 48.51,121.17 0.04,0.1 0.03,0.1 0.04,0.1 0.04,0.1 0.04,0.1 0.04,0.1 0.04,0.1 7.12,17.78 41.33,103.17 c 1.1,2.79 3.12,5.2 6.05,7.15 2.92,1.96 5.78,2.93 8.58,2.93 h 2.6 c 2.8,0 5.72,-0.97 8.65,-2.93 2.92,-1.95 4.88,-4.36 5.98,-7.15 l 100.14,-250.03 c 0.85,-2.14 1.3,-4.23 1.3,-6.18 0,-4.35 -1.56,-8.07 -4.68,-11.25 -3.18,-3.12 -6.9,-4.68 -11.25,-4.68 -3.06,0 -5.98,0.97 -8.91,2.92 -2.92,1.96 -4.94,4.36 -6.05,7.16 l -71.53,179.8 c -2.59,6.69 -7.54,10.08 -14.76,10.08 -7.28,0 -12.22,-3.39 -14.82,-10.08 l -15.07,-37.67 -0.74,-1.83 -4.36,-10.89 -0.22,-0.52 -0.05,-0.13 -0.06,-0.13 -0.01,-0.01 -48.91,-121.64 -2.77,-6.98 c -1.1,-2.8 -3.05,-5.2 -5.98,-7.16 -2.93,-1.95 -5.85,-2.92 -8.64,-2.92 -4.36,0 -8.07,1.56 -11.19,4.68 -3.19,3.18 -4.75,6.9 -4.75,11.25 0,1.95 0.45,4.04 1.3,6.18 z m -140.12,-30.62 c 7.34,0 12.42,3.38 15.15,10.08 2.66,6.7 1.3,12.55 -4.09,17.55 l -98.52,89.75 c -4.75,4.35 -7.16,9.75 -7.16,16.25 0,5.4 2.08,10.4 6.18,14.95 l 103.39,109.58 c 4.75,5 5.79,10.66 3.13,17.03 -2.74,6.44 -7.55,9.63 -14.51,9.63 -4.35,0 -8.13,-1.63 -11.37,-4.88 L 844.24,1304.84 c -3.91,-4.1 -7.29,-9.69 -10.08,-16.77 -2.79,-7.03 -4.23,-13.34 -4.23,-19 0,-6.3 1.63,-13.2 4.88,-20.67 3.25,-7.48 7.28,-13.27 12.03,-17.36 l 99.82,-91.05 c 3.25,-2.79 6.83,-4.22 10.73,-4.22 z m 586.87,13.01 c 3.05,-7.62 8.65,-11.39 16.9,-11.39 8.26,0 13.86,3.77 16.92,11.39 l 97.21,245.15 c 0.84,2.6 1.3,4.87 1.3,6.83 0,5 -1.82,9.3 -5.53,13 -3.7,3.71 -8,5.53 -13,5.53 -3.45,0 -6.83,-1.17 -10.09,-3.44 -3.24,-2.28 -5.52,-5.02 -6.82,-8.26 l -21.78,-55.93 -14.96,-37.71 h 0.32 l -33.81,-87.47 c -3.06,-7.8 -6.31,-11.77 -9.88,-11.9 -3.58,-0.06 -6.9,3.77 -9.95,11.58 l -34.14,87.79 -13.98,35.76 -23.09,57.88 c -1.3,3.24 -3.57,5.98 -6.83,8.12 -3.25,2.14 -6.63,3.25 -10.08,3.25 -5,0 -9.23,-1.81 -12.8,-5.39 -3.58,-3.58 -5.4,-7.81 -5.4,-12.81 0,-1.76 0.45,-3.91 1.3,-6.51 z m 265.31,271.81 c -4.36,0 -8.13,-1.63 -11.38,-4.88 -3.26,-3.25 -4.88,-7.03 -4.88,-11.38 l 0.98,-252.31 c 0,-4.35 1.56,-8.13 4.74,-11.37 3.12,-3.26 6.83,-4.88 11.18,-4.88 2.8,0 5.34,0.67 7.67,2 l 0.02,0.01 0.16,0.09 0.04,0.02 c 2.22,1.2 4.14,2.99 5.77,5.36 l 86.68,123.87 0.15,0.21 0.15,0.22 0.16,0.22 0.09,0.13 0.09,0.14 0.08,0.13 0.1,0.13 61.21,87.48 0.53,-203.76 c 0,-4.35 1.63,-8.13 4.88,-11.37 3.25,-3.26 7.03,-4.88 11.38,-4.88 4.36,0 8.13,1.62 11.38,4.88 3.25,3.24 4.88,7.02 4.88,11.37 v 252.31 c 0,4.35 -1.63,8.13 -4.88,11.38 -3.25,3.25 -7.02,4.88 -11.38,4.88 h -0.98 c -3.93,0 -7.32,-1.33 -10.24,-3.97 -10.05,-10.18 -24.29,-31.18 -31.75,-41.87 l -59.92,-85.86 c -0.64,-0.68 -1.25,-1.43 -1.81,-2.26 l -58.2,-83.39 v 201.09 c 0,4.35 -1.62,8.13 -4.87,11.38 -3.26,3.25 -7.03,4.88 -11.39,4.88 z m 528.67,-250.68 h -69.25 c -4.35,0 -7.99,1.56 -11.05,4.68 -3.06,3.18 -4.56,6.83 -4.56,10.92 v 216.55 c 0,4.09 -1.49,7.73 -4.55,10.85 -3.05,3.19 -6.7,4.75 -11.05,4.75 -4.36,0 -8,-1.56 -11.06,-4.75 -3.05,-3.12 -4.55,-6.76 -4.55,-10.85 v -216.55 c 0,-4.09 -1.49,-7.74 -4.55,-10.92 -3.06,-3.12 -6.7,-4.68 -11.05,-4.68 h -68.94 c -4.35,0 -8,-1.57 -11.05,-4.75 -3.06,-3.12 -4.55,-6.76 -4.55,-10.86 0,-4.1 1.49,-7.74 4.55,-10.92 3.05,-3.13 6.7,-4.69 11.05,-4.69 h 200.61 c 4.1,0 7.74,1.56 10.93,4.69 3.12,3.18 4.69,6.82 4.69,10.92 0,4.1 -1.57,7.74 -4.69,10.86 -3.19,3.18 -6.83,4.75 -10.93,4.75 z"
             id="path825" />
          <path
             style="fill:url(#id0)"
             class="fil1"
             d="m 282.89,1005.15 c 30.41,-5.33 80.1,-5.57 140.78,25.32 34.3,17.46 70.7,42.16 101.9,69.15 -54.69,4.73 -87.71,32.59 -128.46,74.62 -44.76,-53.9 -82.22,-110.48 -114.22,-169.09 z m 306.31,165.01 c 13.51,21.55 19.95,41.95 15.74,58.77 -4.42,17.69 -15.8,37.7 -31.85,58.42 -48.36,-17.56 -94.91,-40.55 -138.48,-72.48 25.23,-32.58 85.63,-55.99 154.59,-44.71 z m -55.9,161.22 c -31.76,30.98 -70.25,61.07 -108.07,85.07 -64.46,40.91 -157.45,75.92 -209.51,37.91 51.74,-72.05 171.76,-213.17 179.82,-205.12 39.29,33.07 87.1,58.83 137.76,82.14 z m -342.27,93.09 c -2.43,-4.85 -4.59,-10.1 -6.45,-15.83 -31.92,-98.82 -23.93,-227.36 20.17,-322.78 51.34,39.71 100.46,80.03 148.6,130.57 -63.54,64.39 -115.11,135.07 -162.32,208.04 z"
             id="path827" />
        </g>
      </g>
    </g>
  </g>
</svg>
